/* XPM */
static char * button_xpm[] = {
"22 22 10 1",
" 	c None",
".	c #F5F5F5",
"+	c #DEDEDE",
"@	c #5A5A5A",
"#	c #D3D3D3",
"$	c #D2D2D2",
"%	c #000000",
"&	c #808080",
"*	c #CACACA",
"=	c #D1D1D1",
"                      ",
"                      ",
"                      ",
"                      ",
"                      ",
"                      ",
"                      ",
"  ................... ",
"  .+++++++++++++++++@ ",
"  .+#$#%%###%##%###&@ ",
"  .+##%##%##%#%####&@ ",
"  .+##%##%##%%#####&@ ",
"  .+##%##%##%#%####&@ ",
"  .+#$#%%*=#%##%###&@ ",
"  .&&&&&&&&&&&&&&&&&@ ",
"  @@@@@@@@@@@@@@@@@@@ ",
"                      ",
"                      ",
"                      ",
"                      ",
"                      ",
"                      "};
