/* XPM */
static char * checkbox_xpm[] = {
"22 22 8 1",
" 	c None",
".	c #5A5A5A",
"+	c #000000",
"@	c #FDFDFD",
"#	c #DEDEDE",
"$	c #FFFFFF",
"%	c #F9F9F9",
"&	c #F8F8F8",
"                      ",
"                      ",
"                      ",
"                      ",
"                      ",
"                      ",
"                      ",
"                      ",
"                      ",
"   ......  ++   +  +  ",
"   .@@@@# +  +  + +   ",
"   .@$@%# +  +  ++    ",
"   .@@@&# +  +  + +   ",
"   ######  ++   +  +  ",
"                      ",
"                      ",
"                      ",
"                      ",
"                      ",
"                      ",
"                      ",
"                      "};
