/* XPM */
static char * draw_xpm[] = {
"22 22 13 1",
" 	c None",
".	c #5A5A5A",
"+	c #FFFFFF",
"@	c #A7A7A7",
"#	c #CCEAE8",
"$	c #060606",
"%	c #F5F5F5",
"&	c #FFFB27",
"*	c #030303",
"=	c #0E0E0E",
"-	c #FFFB21",
";	c #FFFB16",
">	c #FFFC36",
"                      ",
" ..................+  ",
" .@@@@@@@@@@@@@@@@@+  ",
" .@######$$#######%+  ",
" .@#####$$$$######%+  ",
" .@#####$+$$######%+  ",
" .@###&&&&$$######%+  ",
" .@###&&&&$*######%+  ",
" .@###$$$+++$$$###%+  ",
" .@##$$$+++++$$$##%+  ",
" .@#$$#=+++++$$$$#%+  ",
" .@#$$#=+++++$#$$#%+  ",
" .@####$+++++$####%+  ",
" .@####$$+++$$####%+  ",
" .@###-&$$$$&&####%+  ",
" .@##&-&#$$$&&&###%+  ",
" .@##---####&;>###%+  ",
" .@###############%+  ",
" .%%%%%%%%%%%%%%%%%+  ",
" +++++++++++++++++++  ",
"                      ",
"                      "};
