/* XPM */
static char * edit_xpm[] = {
"22 22 9 1",
" 	c None",
".	c #5A5A5A",
"+	c #7E7E7E",
"@	c #808080",
"#	c #F5F5F5",
"$	c #FFFFFF",
"%	c #FDFDFD",
"&	c #000000",
"*	c #DEDEDE",
"                      ",
"                      ",
"                      ",
"                      ",
"                      ",
"                      ",
"                      ",
"  ................... ",
"  .+@@@@@@@@@@@@@@@@# ",
"  .@$%$&&$$$&$$&$$$*# ",
"  .@$$&$$&$$&$&$$$$*# ",
"  .@$$&$$&$$&&$$$$$*# ",
"  .@$$&$$&$$&$&$$$$*# ",
"  .@$$$&&$$$&$$&$$$*# ",
"  .*****************# ",
"  ################### ",
"                      ",
"                      ",
"                      ",
"                      ",
"                      ",
"                      "};
