/* XPM */
static char * filedialog_xpm[] = {
"22 22 32 1",
" 	c None",
".	c #896E41",
"+	c #725B2D",
"@	c #9D7E51",
"#	c #967844",
"$	c #E0B359",
"%	c #EFBF5F",
"&	c #C9A151",
"*	c #7A613D",
"=	c #8F8253",
"-	c #B49F58",
";	c #BBA55A",
">	c #BAA45A",
",	c #A69455",
"'	c #9E8D5F",
")	c #BBA571",
"!	c #BAA371",
"~	c #B6966E",
"{	c #261E17",
"]	c #D9D883",
"^	c #CECD7C",
"/	c #A38963",
"(	c #000000",
"_	c #FFFE9A",
":	c #EFEE90",
"<	c #9A825D",
"[	c #FFFA9A",
"}	c #EFEB90",
"|	c #9A815D",
"1	c #846F50",
"2	c #7C684B",
"3	c #886D52",
"                      ",
"                      ",
"                      ",
"    .+++@             ",
"   #$%%%&*            ",
"  =-;;;;>,')))))))!~  ",
" {]]]]]]]]]]]]]]]]^/  ",
" (________________:<  ",
" (________________:<  ",
" (________________:<  ",
" (________________:<  ",
" (________________:<  ",
" (________________:<  ",
" (________________:<  ",
" (________________:<  ",
" (________________:<  ",
" ([[[[[[[[[[[[[[[[}|  ",
" (111111111111111123  ",
"                      ",
"                      ",
"                      ",
"                      "};
