/* XPM */
static char * filelist_xpm[] = {
"22 22 7 1",
" 	c None",
".	c #5A5A5A",
"+	c #FFFFFF",
"@	c #A7A7A7",
"#	c #F5F5F5",
"$	c #220EF7",
"%	c #000000",
"                      ",
" ..................+  ",
" .@@@@@@@@@@@@@@@@@+  ",
" .@+++++++++++++.@#+  ",
" .@+$$++$+$$++++.@#+  ",
" .@+$+$+++$+$+++.@#+  ",
" .@+$+$+$+$$++++.@#+  ",
" .@+$$++$+$+$+++.@#+  ",
" .@+++++++++++++.@#+  ",
" .@+%%+%+%++%%++.@#+  ",
" .@+%++++%++%+++.@#+  ",
" .@+%%+%+%++%%++.@#+  ",
" .@+%++%+%%+%%++.@#+  ",
" .@+++++++++++++.@#+  ",
" .@+%%+%+%++%%++.@#+  ",
" .@+%++++%++%+++.@#+  ",
" .@+%%+%+%++%%++.@#+  ",
" .@+%++%+%%+%%++.@#+  ",
" .#################+  ",
" +++++++++++++++++++  ",
"                      ",
"                      "};
