/* XPM */
static char * list_xpm[] = {
"22 22 6 1",
" 	c None",
".	c #5A5A5A",
"+	c #FFFFFF",
"@	c #A7A7A7",
"#	c #F5F5F5",
"$	c #000000",
"                      ",
" ..................+  ",
" .@@@@@@@@@@@@@@@@@+  ",
" .@+++++++++++++.@#+  ",
" .@+$++$+$$+$$$+.@#+  ",
" .@+$++++$+++$++.@#+  ",
" .@+$++$++$++$++.@#+  ",
" .@+$$+$+$$++$++.@#+  ",
" .@+++++++++++++.@#+  ",
" .@+$++$+$$+$$$+.@#+  ",
" .@+$++++$+++$++.@#+  ",
" .@+$++$++$++$++.@#+  ",
" .@+$$+$+$$++$++.@#+  ",
" .@+++++++++++++.@#+  ",
" .@+$++$+$$+$$$+.@#+  ",
" .@+$++++$+++$++.@#+  ",
" .@+$++$++$++$++.@#+  ",
" .@+$$+$+$$++$++.@#+  ",
" .#################+  ",
" +++++++++++++++++++  ",
"                      ",
"                      "};
