/* XPM */
static char * menu_xpm[] = {
"22 22 7 1",
" 	c None",
".	c #FFFFFF",
"+	c #5A5A5A",
"@	c #F5F5F5",
"#	c #D6D6D6",
"$	c #A7A7A7",
"%	c #000000",
"                      ",
" ..................+  ",
" .@@@@@@@@@@@@@@@@@+  ",
" .@###############$+  ",
" .@#%##%%##%%#%#%#$+  ",
" .@%#%#%#%#%##%%%#$+  ",
" .@%#%#%%##%%#%%%#$+  ",
" .@#%##%###%%#%#%#$+  ",
" .@###############$+  ",
" .$$$$$$$$$$$$$$$$$+  ",
" +++++++++++++++++++  ",
"                      ",
"                      ",
"                      ",
"                      ",
"                      ",
"                      ",
"                      ",
"                      ",
"                      ",
"                      ",
"                      "};
