/* XPM */
static char * scroll_xpm[] = {
"22 22 8 1",
" 	c None",
".	c #F5F5F5",
"+	c #DEDEDE",
"@	c #5A5A5A",
"#	c #D3D3D3",
"$	c #808080",
"%	c #A8A8A8",
"&	c #000000",
"                      ",
"                      ",
"                      ",
"                      ",
"                      ",
"                      ",
"                      ",
" .................... ",
" .+++++@++++++.+++++@ ",
" .+###$@%%%%%%.+###$@ ",
" .+#&#$@%%%%%%.+#&#$@ ",
" .+&&#$@%%%%%%.+#&&$@ ",
" .+#&#$@%%%%%%.+#&#$@ ",
" .+###$@%%%%%%.+###$@ ",
" .$$$$$@$$$$$$.$$$$$@ ",
" @@@@@@@@@@@@@@@@@@@@ ",
"                      ",
"                      ",
"                      ",
"                      ",
"                      ",
"                      "};
