/* XPM */
static char * toolbutton_xpm[] = {
"22 22 17 1",
" 	c None",
".	c #F5F5F5",
"+	c #DEDEDE",
"@	c #808080",
"#	c #5A5A5A",
"$	c #D2D1D1",
"%	c #D2CDCD",
"&	c #D5BDBD",
"*	c #DAA7A7",
"=	c #D6B9B9",
"-	c #E08B8B",
";	c #EA5959",
">	c #D6BDBD",
",	c #EE4848",
"'	c #F71B1B",
")	c #EB5959",
"!	c #FC0505",
"                      ",
"                      ",
"                      ",
"                      ",
"                      ",
"     ............     ",
"     .+++++++++@#     ",
"     .+$%&**&%$@#     ",
"     .+%=-;;-=%@#     ",
"     .+>-,'',->@#     ",
"     .+*)'!!')*@#     ",
"     .+*)'!!')*@#     ",
"     .+>-,'',->@#     ",
"     .+%=-;;-=%@#     ",
"     .+$%&**&%$@#     ",
"     .@@@@@@@@@@#     ",
"     ############     ",
"                      ",
"                      ",
"                      ",
"                      ",
"                      "};
