/* XPM */
static char * xpmbutton_xpm[] = {
"22 22 26 1",
" 	c None",
".	c #F5F5F5",
"+	c #DEDEDE",
"@	c #5A5A5A",
"#	c #D2D1D1",
"$	c #D4C3C3",
"%	c #DAA7A7",
"&	c #D6B9B9",
"*	c #D2CFCF",
"=	c #D3D3D3",
"-	c #000000",
";	c #808080",
">	c #E37A7A",
",	c #F23434",
"'	c #EA5959",
")	c #D9ADAD",
"!	c #FC0505",
"~	c #F81717",
"{	c #E47878",
"]	c #D7B9B9",
"^	c #F13737",
"/	c #DE9797",
"(	c #DD9797",
"_	c #D3C6C6",
":	c #CACACA",
"<	c #D1D1D1",
"                      ",
"                      ",
"                      ",
"                      ",
"                      ",
"                      ",
"                      ",
"  ................... ",
"  .+++++++++++++++++@ ",
"  .+#$%&*=--===-==-;@ ",
"  .+$>,')-==-==-=-=;@ ",
"  .+%,!~{-==-==--==;@ ",
"  .+]'~^/-==-==-=-=;@ ",
"  .+*){(_=--:<=-==-;@ ",
"  .;;;;;;;;;;;;;;;;;@ ",
"  @@@@@@@@@@@@@@@@@@@ ",
"                      ",
"                      ",
"                      ",
"                      ",
"                      ",
"                      "};
